<svg width="46" height="46" viewBox="0 0 46 46" fill="none" xmlns="http://www.w3.org/2000/svg">
<path d="M1.50817 43.938C0.548732 42.9532 0.0195411 41.6273 0.0369798 40.2525C0.0544186 38.8776 0.617077 37.5662 1.60119 36.606L15.4841 22.7232L1.60119 8.83842C1.10404 8.36813 0.706205 7.803 0.431267 7.17631C0.156329 6.54962 0.00986055 5.87426 0.000480811 5.18998C-0.00889893 4.5057 0.119044 3.82592 0.376702 3.19194C0.634359 2.55795 1.01653 1.98231 1.5006 1.49858C1.98467 1.01484 2.56077 0.632749 3.19494 0.37553C3.8291 0.118311 4.50835 -0.00932263 5.19262 0.000529905C5.87689 0.0103824 6.55233 0.1568 7.17883 0.432171C7.80532 0.707542 8.37026 1.10657 8.8402 1.60405L22.7222 15.4849L36.6022 1.60405C37.0727 1.10725 37.6379 0.708789 38.2646 0.434124C38.8913 0.159458 39.5667 0.0137095 40.2508 0.00443615C40.935 -0.0048372 41.6141 0.12381 42.248 0.381389C42.8819 0.638969 43.4578 1.02057 43.9416 1.50444C44.4254 1.9883 44.8073 2.56385 45.0648 3.1978C45.3223 3.83174 45.4502 4.51167 45.4408 5.19584C45.4314 5.88002 45.2851 6.55552 45.0104 7.18217C44.7356 7.80883 44.338 8.37384 43.8412 8.84428L29.9622 22.7232L43.8412 36.6001C44.3358 37.0712 44.7312 37.6361 45.0041 38.2622C45.2771 38.8884 45.4221 39.5617 45.4305 40.2447C45.439 40.9276 45.3108 41.6061 45.0535 42.2388C44.7961 42.8715 44.4148 43.4471 43.932 43.9302C43.4492 44.4133 42.8747 44.7935 42.2422 45.0513C41.6097 45.3091 40.932 45.4382 40.249 45.4302C39.566 45.4222 38.8915 45.2789 38.2653 45.0064C37.639 44.7339 37.0735 44.3386 36.6022 43.8443L22.7222 29.9634L8.8402 43.8443C8.3485 44.3391 7.76396 44.7321 7.12011 45.0005C6.47626 45.2689 5.78568 45.4078 5.08813 45.4087C4.42394 45.4119 3.76566 45.2821 3.15124 45.0298C2.53682 44.7775 1.97845 44.4071 1.50817 43.938Z" fill="#F6F7F5"/>
</svg>
