<?xml version="1.0" encoding="UTF-8"?> <svg xmlns="http://www.w3.org/2000/svg" width="60.01" height="60" viewBox="0 0 60.01 60"><g><path fill="#fff" d="M708.658 138.6h-3.516a3.128 3.128 0 0 0-.453-.1 27.677 27.677 0 0 1-10.516-2.748 29.619 29.619 0 0 1-16.8-21.932c-.223-1.141-.318-2.308-.473-3.462v-3.515a3.985 3.985 0 0 0 .1-.505 27.761 27.761 0 0 1 3.43-11.816c5.527-9.826 13.954-15.176 25.215-15.869a27.489 27.489 0 0 1 15.275 3.455c9.875 5.5 15.232 13.946 15.934 25.228a27.791 27.791 0 0 1-3.472 15.329 29.558 29.558 0 0 1-21.253 15.459c-1.145.223-2.314.322-3.471.476zm12.016-50.854c-.859 0-1.72.036-2.577-.009a2.071 2.071 0 0 0-2.083 1.2q-6.565 11.68-13.148 23.35a.818.818 0 0 0-.019.673q4.151 7.665 8.334 15.313a2.1 2.1 0 0 0 2.036 1.2c1.776-.028 3.554-.006 5.331-.009 1.236 0 1.552-.534.971-1.623-.046-.086-.095-.17-.142-.256q-3.961-7.236-7.929-14.468a.838.838 0 0 1 0-.954c1.02-1.753 2.005-3.526 3-5.292l9.883-17.467c.62-1.1.293-1.653-.966-1.656-.894-.004-1.792-.002-2.691-.002zm-27.6 29.222c.9 0 1.8-.021 2.695.006a1.921 1.921 0 0 0 1.872-1.055q3.2-5.654 6.39-11.31a.623.623 0 0 0 .026-.518c-1.368-2.408-2.733-4.819-4.159-7.193a1.721 1.721 0 0 0-1.125-.809c-2.18-.091-4.366-.064-6.549-.075a.736.736 0 0 0-.171.036.657.657 0 0 0-.551.909 3.106 3.106 0 0 0 .3.693c1.175 2.047 2.343 4.1 3.552 6.125a.978.978 0 0 1-.012 1.151c-1.96 3.418-3.893 6.851-5.833 10.281-.69 1.22-.37 1.756 1.047 1.758z" transform="translate(-676.899 -78.6) translate(0 0)"></path></g></svg> 