<?xml version="1.0" encoding="UTF-8"?> <svg xmlns="http://www.w3.org/2000/svg" width="59" height="59" viewBox="0 0 59 59" fill="none"><path d="M29.5 0C23.6655 0 17.9619 1.73014 13.1107 4.97164C8.25945 8.21314 4.47838 12.8205 2.2456 18.2109C0.0128124 23.6013 -0.571427 29.5327 0.566837 35.2552C1.7051 40.9776 4.51474 46.234 8.64039 50.3596C12.766 54.4853 18.0224 57.2949 23.7449 58.4332C29.4673 59.5715 35.3987 58.9872 40.7892 56.7544C46.1796 54.5216 50.7869 50.7406 54.0284 45.8893C57.2699 41.0381 59 35.3345 59 29.5C59 21.6761 55.892 14.1727 50.3597 8.64036C44.8273 3.10803 37.3239 0 29.5 0ZM45.6267 36.1936C45.6056 37.5383 45.3511 38.8692 44.8745 40.1269C44.4699 41.2124 43.8321 42.1959 43.0061 43.008C42.1929 43.8291 41.2131 44.4662 40.1328 44.8764C38.8691 45.3441 37.5367 45.5992 36.1896 45.6316C34.4786 45.7073 33.9054 45.7299 29.503 45.7299C25.1006 45.7299 24.5263 45.7093 22.8163 45.6316C21.4722 45.6018 20.1426 45.3465 18.883 44.8764C17.7997 44.4681 16.8172 43.8308 16.0028 43.008C15.1768 42.1958 14.5391 41.2123 14.1345 40.1269C13.6658 38.867 13.4115 37.5375 13.3822 36.1936C13.3045 34.4914 13.2838 33.9221 13.2838 29.502C13.2838 25.0819 13.3036 24.5135 13.3822 22.8153C13.4135 21.4681 13.6677 20.1353 14.1345 18.8711C14.5415 17.7901 15.179 16.8107 16.0028 16.0008C16.812 15.1716 17.7959 14.5333 18.883 14.1325C20.1401 13.6537 21.4712 13.3981 22.8163 13.3773H22.8605C24.5322 13.3016 25.0907 13.279 29.5059 13.279C33.9211 13.279 34.4845 13.3055 36.1503 13.3773H36.1965C37.5447 13.3992 38.8788 13.6547 40.1397 14.1325C41.2231 14.5365 42.2042 15.1744 43.013 16.0008C43.8368 16.8106 44.4743 17.7901 44.8813 18.8711C45.3574 20.1327 45.6119 21.4671 45.6336 22.8153C45.7142 24.5175 45.7319 25.0327 45.7319 29.502C45.7319 33.9712 45.7073 34.4865 45.6267 36.1936Z" fill="white"></path><path d="M34 29.5C34 31.9853 31.9853 34 29.5 34C27.0147 34 25 31.9853 25 29.5C25 27.0147 27.0147 25 29.5 25C31.9853 25 34 27.0147 34 29.5Z" fill="white"></path><path fill-rule="evenodd" clip-rule="evenodd" d="M16 28C16 22.3431 16 19.5147 17.7574 17.7574C19.5147 16 22.3431 16 28 16H31C36.6569 16 39.4853 16 41.2426 17.7574C43 19.5147 43 22.3431 43 28V31C43 36.6569 43 39.4853 41.2426 41.2426C39.4853 43 36.6569 43 31 43H28C22.3431 43 19.5147 43 17.7574 41.2426C16 39.4853 16 36.6569 16 31V28ZM37 29.5C37 33.6421 33.6421 37 29.5 37C25.3579 37 22 33.6421 22 29.5C22 25.3579 25.3579 22 29.5 22C33.6421 22 37 25.3579 37 29.5ZM38 23C39.1046 23 40 22.1046 40 21C40 19.8954 39.1046 19 38 19C36.8954 19 36 19.8954 36 21C36 22.1046 36.8954 23 38 23Z" fill="white"></path></svg> 