<?xml version="1.0" encoding="utf-8"?>
<!-- Generator: Adobe Illustrator 26.1.0, SVG Export Plug-In . SVG Version: 6.00 Build 0)  -->
<svg version="1.1" id="Ebene_1" xmlns="http://www.w3.org/2000/svg" xmlns:xlink="http://www.w3.org/1999/xlink" x="0px" y="0px"
	 width="118px" height="97.2px" viewBox="0 0 118 97.2" style="enable-background:new 0 0 118 97.2;" xml:space="preserve">
<style type="text/css">
	.st0{fill:url(#SVGID_1_);}
	.st1{fill:#FFF800;}
	.st2{fill:#DB0159;}
	.st3{fill:url(#SVGID_00000168814377505336608400000006620573452759250834_);}
	.st4{fill:url(#SVGID_00000121987526916026512420000013185078768775371180_);}
</style>
<g>
	
		<radialGradient id="SVGID_1_" cx="58.5993" cy="496.6408" r="34.4994" gradientTransform="matrix(1 0 0 1 0 -440)" gradientUnits="userSpaceOnUse">
		<stop  offset="0" style="stop-color:#FDE635"/>
		<stop  offset="0.4583" style="stop-color:#FDE435"/>
		<stop  offset="0.6234" style="stop-color:#FCDD33"/>
		<stop  offset="0.7411" style="stop-color:#FCD230"/>
		<stop  offset="0.8363" style="stop-color:#FBC12C"/>
		<stop  offset="0.9178" style="stop-color:#F9AB26"/>
		<stop  offset="0.9886" style="stop-color:#F7901F"/>
		<stop  offset="1" style="stop-color:#F78B1E"/>
	</radialGradient>
	<circle class="st0" cx="59" cy="62.7" r="34.5"/>
	<g>
		<path id="Path_227" class="st1" d="M56,6.8c0.1-0.9,0-3.6,3.1-3.6c1.5,0,2,2.1,2.1,3.6c0.2,2.3-2.3,17.9-2.3,17.9S55.7,9.1,56,6.8
			z"/>
		<path id="Path_228" class="st1" d="M67.6,15.4c0.1-0.4,0.3-1.8,1.8-1.5c0.7,0.1,0.8,1.2,0.7,1.9c-0.1,1.2-2.6,8.6-2.6,8.6
			S67.2,16.5,67.6,15.4L67.6,15.4z"/>
		<path id="Path_229" class="st1" d="M85.5,21.9c0.3-0.3,1-1.5,2.3-0.7c0.6,0.4,0.3,1.4-0.1,2.1c-0.5,1-5.8,6.9-5.8,6.9
			S84.8,22.8,85.5,21.9L85.5,21.9z"/>
		<path id="Path_230" class="st1" d="M97.5,34.1c0.4-0.2,1.5-1,2.4,0.4c0.4,0.6-0.4,1.4-1,1.8c-0.9,0.7-8.2,3.8-8.2,3.8
			S96.5,34.6,97.5,34.1L97.5,34.1z"/>
		<path id="Path_231" class="st1" d="M105.2,52.7c0.4,0,1.8-0.1,1.9,1.5c0,0.7-1,1-1.7,1.1c-1.2,0.2-9-0.7-9-0.7
			S104.1,52.6,105.2,52.7z"/>
		<path id="Path_232" class="st1" d="M50,16.4c-0.1-0.4-0.3-1.8-1.8-1.5c-0.7,0.1-0.8,1.2-0.7,1.9c0.1,1.2,2.6,8.6,2.6,8.6
			S50.4,17.4,50,16.4L50,16.4z"/>
		<path id="Path_233" class="st1" d="M32.1,22.9c-0.3-0.3-1-1.5-2.3-0.7c-0.6,0.4-0.3,1.4,0.1,2.1c0.5,1,5.8,6.9,5.8,6.9
			S32.9,23.7,32.1,22.9z"/>
		<path id="Path_234" class="st1" d="M20.1,35.1c-0.4-0.2-1.5-1-2.4,0.4c-0.4,0.6,0.4,1.4,1,1.8c0.9,0.7,8.2,3.8,8.2,3.8
			S21.1,35.5,20.1,35.1z"/>
		<path id="Path_235" class="st1" d="M12.4,53.6c-0.4,0-1.8-0.1-1.9,1.5c0,0.7,1,1,1.7,1.1c1.2,0.2,9-0.7,9-0.7S13.5,53.5,12.4,53.6
			z"/>
		<path id="Path_236" class="st1" d="M79.4,10c0.4-0.8,1.1-3.5,4.1-2.5c1.4,0.5,1.2,2.6,0.9,4.1c-0.5,2.3-7.7,16.3-7.7,16.3
			S78.4,12.1,79.4,10L79.4,10z"/>
		<path id="Path_237" class="st1" d="M96.8,21.4c0.7-0.5,2.7-2.5,4.8-0.1c1,1.1-0.2,2.9-1.3,4C98.8,27,85.5,35.5,85.5,35.5
			S94.9,22.7,96.8,21.4L96.8,21.4z"/>
		<path id="Path_238" class="st1" d="M111.6,39.2c0.9-0.1,3.5-1.1,4.4,1.8c0.5,1.4-1.4,2.5-2.8,3.1c-2.2,0.9-17.7,3.3-17.7,3.3
			S109.4,39.6,111.6,39.2z"/>
		<path id="Path_239" class="st1" d="M115.1,64.5c0.8,0.3,3.5,0.8,2.8,3.9c-0.4,1.4-2.5,1.4-4,1.2c-2.3-0.4-16.8-6.5-16.8-6.5
			S112.9,63.6,115.1,64.5z"/>
		<path id="Path_240" class="st1" d="M38.5,10c-0.4-0.8-1.1-3.5-4.1-2.5c-1.4,0.5-1.2,2.6-0.9,4.1c0.5,2.3,7.7,16.3,7.7,16.3
			S39.6,12.1,38.5,10L38.5,10z"/>
		<path id="Path_241" class="st1" d="M21.1,21.4c-0.7-0.5-2.7-2.5-4.8-0.1c-1,1.1,0.2,2.9,1.3,4c1.6,1.7,14.8,10.3,14.8,10.3
			S23,22.7,21.1,21.4z"/>
		<path id="Path_242" class="st1" d="M6.3,39.2C5.4,39,2.8,38,1.9,41c-0.5,1.4,1.4,2.5,2.8,3.1c2.2,0.9,17.7,3.3,17.7,3.3
			S8.6,39.6,6.3,39.2z"/>
		<path id="Path_243" class="st1" d="M2.9,64.5c-0.8,0.3-3.5,0.8-2.8,3.9c0.4,1.4,2.5,1.4,4,1.2c2.3-0.4,16.8-6.5,16.8-6.5
			S5.1,63.6,2.9,64.5z"/>
	</g>
	<g>
		<g>
			<g>
				<path class="st2" d="M34,38.9c-5,0-8.1,4.8-8.1,8.4c0,7.8,8.8,14.6,15.1,19.1c6.2-4.6,15-11.4,15-19.2c0-3.6-3.1-8.3-8.1-8.3
					c-2.8,0-5.2,2.2-7,4.4C39.2,41.2,36.8,38.9,34,38.9L34,38.9z"/>
			</g>
		</g>
		<g>
			<g>
				<path class="st2" d="M70.1,38.9c-5,0-8.1,4.8-8.1,8.4c0,7.8,8.8,14.6,15.1,19.1c6.2-4.6,15-11.4,15-19.2c0-3.6-3.1-8.3-8.1-8.3
					c-2.8,0-5.2,2.2-7,4.4C75.2,41.2,72.9,38.9,70.1,38.9L70.1,38.9z"/>
			</g>
		</g>
	</g>
	<g>
		
			<linearGradient id="SVGID_00000158747296848321455580000015556861160238003591_" gradientUnits="userSpaceOnUse" x1="58.9999" y1="530.5447" x2="58.9999" y2="510.1761" gradientTransform="matrix(1 0 0 1 0 -440)">
			<stop  offset="0" style="stop-color:#85231B"/>
			<stop  offset="1" style="stop-color:#33070D"/>
		</linearGradient>
		<path style="fill:url(#SVGID_00000158747296848321455580000015556861160238003591_);" d="M82.4,72.6c-0.3,1.1-0.6,2.2-1.1,3.3
			c-2.5,5.9-7.3,10.7-13.4,13c-2.7,1.1-5.7,1.7-8.9,1.7c-3.1,0-6.1-0.6-8.9-1.7c-6.1-2.4-10.9-7.1-13.4-13c-0.4-1.1-0.8-2.2-1.1-3.3
			c-0.3-1.2,0.6-2.4,1.9-2.4h42.9C81.8,70.2,82.7,71.4,82.4,72.6z"/>
		
			<radialGradient id="SVGID_00000167356437878160609020000002000799369397625490_" cx="59.0001" cy="25012.3379" r="25.1427" gradientTransform="matrix(1 0 0 0.2611 0 -6457.0742)" gradientUnits="userSpaceOnUse">
			<stop  offset="0" style="stop-color:#FCFDFE"/>
			<stop  offset="0.2546" style="stop-color:#F8FAFC"/>
			<stop  offset="0.5018" style="stop-color:#ECF0F6"/>
			<stop  offset="0.7459" style="stop-color:#D9DFEC"/>
			<stop  offset="0.9869" style="stop-color:#BEC8DE"/>
			<stop  offset="1" style="stop-color:#BCC7DD"/>
		</radialGradient>
		<path style="fill:url(#SVGID_00000167356437878160609020000002000799369397625490_);" d="M82.4,72.6c-0.3,1.1-0.6,2.2-1.1,3.3
			H36.7c-0.4-1.1-0.8-2.2-1.1-3.3c-0.3-1.2,0.6-2.4,1.9-2.4h43.1C81.8,70.2,82.7,71.4,82.4,72.6z"/>
	</g>
	<path class="st2" d="M67.9,88.8c-2.6-1.7-5.8-2.7-9.1-2.7s-6.2,1.2-8.7,2.9C55.8,91.5,62.9,90.9,67.9,88.8z"/>
</g>
</svg>
