<?xml version="1.0" encoding="utf-8"?>
<!-- Generator: Adobe Illustrator 26.1.0, SVG Export Plug-In . SVG Version: 6.00 Build 0)  -->
<svg version="1.1" id="Ebene_1" xmlns="http://www.w3.org/2000/svg" xmlns:xlink="http://www.w3.org/1999/xlink" x="0px" y="0px"
	 width="118px" height="97px" viewBox="0 0 118 97" style="enable-background:new 0 0 118 97;" xml:space="preserve">
<style type="text/css">
	.st0{fill:url(#SVGID_1_);}
	.st1{fill:#87594A;}
	.st2{fill:url(#SVGID_00000097472705315217790560000010426455840068286344_);}
	.st3{fill:url(#SVGID_00000155856484033137141150000016666868246903400888_);}
	.st4{fill:url(#SVGID_00000098925320287913819530000006555873191059514776_);}
	.st5{fill:#FFF800;}
</style>
<g>
	
		<radialGradient id="SVGID_1_" cx="58.7119" cy="41.5142" r="34.4994" gradientTransform="matrix(1 0 0 -1 0 98)" gradientUnits="userSpaceOnUse">
		<stop  offset="0" style="stop-color:#FDE635"/>
		<stop  offset="0.4583" style="stop-color:#FDE435"/>
		<stop  offset="0.6234" style="stop-color:#FCDD33"/>
		<stop  offset="0.7411" style="stop-color:#FCD230"/>
		<stop  offset="0.8363" style="stop-color:#FBC12C"/>
		<stop  offset="0.9178" style="stop-color:#F9AB26"/>
		<stop  offset="0.9886" style="stop-color:#F7901F"/>
		<stop  offset="1" style="stop-color:#F78B1E"/>
	</radialGradient>
	<circle class="st0" cx="59.1" cy="62.5" r="34.5"/>
	<g>
		<path class="st1" d="M81.1,69.9c-0.2,2-0.7,3.9-1.4,5.6c-3.2,8.2-11.1,13.9-20.4,13.9h-0.4c-9.3,0-17.2-5.8-20.4-13.9
			c-0.7-1.8-1.2-3.7-1.4-5.6c-0.1-1,0.9-1.7,1.8-1.4c7.1,2.8,18.2,3.1,20.2,3.1c1.9,0,13.1-0.3,20.2-3.1
			C80.2,68.2,81.2,68.9,81.1,69.9z"/>
		<g>
			
				<radialGradient id="SVGID_00000123442622092290816810000016098799687216291980_" cx="59.1008" cy="-11618.1729" r="27.4147" gradientTransform="matrix(1 0 0 -0.4202 0 -4808.1699)" gradientUnits="userSpaceOnUse">
				<stop  offset="0" style="stop-color:#FCFDFE"/>
				<stop  offset="0.2546" style="stop-color:#F8FAFC"/>
				<stop  offset="0.5018" style="stop-color:#ECF0F6"/>
				<stop  offset="0.7459" style="stop-color:#D9DFEC"/>
				<stop  offset="0.9869" style="stop-color:#BEC8DE"/>
				<stop  offset="1" style="stop-color:#BCC7DD"/>
			</radialGradient>
			<path style="fill:url(#SVGID_00000123442622092290816810000016098799687216291980_);" d="M81.1,69.9c-0.2,2-0.7,3.9-1.4,5.6
				c-5.8,2.4-12.7,3.9-20.2,3.9h-0.7c-7.5,0-14.5-1.4-20.2-3.9c-0.7-1.8-1.2-3.7-1.4-5.6c-0.1-1,0.9-1.7,1.8-1.4
				c7.1,2.8,18.2,3.1,20.2,3.1c1.9,0,13.1-0.3,20.2-3.1C80.2,68.2,81.2,68.9,81.1,69.9z"/>
			
				<radialGradient id="SVGID_00000032646012317082838080000003756739134548557468_" cx="59.1" cy="-5694.2344" r="23.5469" gradientTransform="matrix(1 0 0 -0.5967 0 -3315.042)" gradientUnits="userSpaceOnUse">
				<stop  offset="0" style="stop-color:#FCFDFE"/>
				<stop  offset="0.2546" style="stop-color:#F8FAFC"/>
				<stop  offset="0.5018" style="stop-color:#ECF0F6"/>
				<stop  offset="0.7459" style="stop-color:#D9DFEC"/>
				<stop  offset="0.9869" style="stop-color:#BEC8DE"/>
				<stop  offset="1" style="stop-color:#BCC7DD"/>
			</radialGradient>
			<path style="fill:url(#SVGID_00000032646012317082838080000003756739134548557468_);" d="M79.7,75.5
				c-3.2,8.2-11.1,13.9-20.4,13.9h-0.4c-9.3,0-17.2-5.8-20.4-13.9c5.8,2.4,12.7,3.9,20.2,3.9h0.7C67,79.4,74,78,79.7,75.5z"/>
		</g>
		
			<linearGradient id="SVGID_00000132772596460619075130000004240068025074554008_" gradientUnits="userSpaceOnUse" x1="59.1" y1="17.4439" x2="59.1" y2="29.5547" gradientTransform="matrix(1 0 0 -1 0 98)">
			<stop  offset="0" style="stop-color:#85231B"/>
			<stop  offset="1" style="stop-color:#33070D"/>
		</linearGradient>
		<path style="fill:url(#SVGID_00000132772596460619075130000004240068025074554008_);" d="M37.2,70.4c0-0.2-0.1-0.3-0.1-0.5
			c-0.1-1,0.9-1.7,1.8-1.4c7.1,2.8,18.2,3.1,20.2,3.1c1.9,0,13.1-0.3,20.2-3.1c0.9-0.4,1.9,0.4,1.8,1.4c0,0.2,0,0.3-0.1,0.5
			c-0.2-0.7-1-1.1-1.7-0.8c-7.1,2.8-18.2,3.1-20.2,3.1c-1.9,0-13.1-0.3-20.2-3.1C38.2,69.3,37.4,69.7,37.2,70.4z M58.7,80.6h0.7
			c7.3,0,14-1.3,19.6-3.6c0.2-0.5,0.4-0.9,0.6-1.4c-5.8,2.4-12.7,3.9-20.2,3.9h-0.7c-7.5,0-14.5-1.4-20.2-3.9
			c0.2,0.5,0.4,0.9,0.6,1.4C44.7,79.2,51.5,80.6,58.7,80.6z"/>
	</g>
	<g>
		<g>
			<path class="st5" d="M30.5,41.2l2.6-9.1c0.1-0.5,0.5-0.9,0.9-1.2c0.4-0.3,1-0.4,1.5-0.3s0.9,0.4,1.3,0.8l5.6,7.6
				c0.4,0.5,1,0.8,1.7,0.8l9.4-0.3l0,0c0.5,0,1,0.2,1.4,0.5s0.6,0.8,0.7,1.3c0.1,0.5-0.1,1-0.4,1.4l-5.5,7.7l0,0
				c-0.4,0.5-0.5,1.3-0.3,1.9l3.2,8.9c0.2,0.5,0.2,1,0,1.5s-0.6,0.9-1,1.1c-0.5,0.2-1,0.3-1.5,0.1l-9-2.8c-0.6-0.2-1.3-0.1-1.9,0.3
				l-7.4,5.8c-0.4,0.3-0.9,0.5-1.4,0.4c-0.5,0-1-0.3-1.3-0.6c-0.3-0.4-0.5-0.9-0.5-1.4l-0.1-9.4c0-0.7-0.3-1.3-0.9-1.7l-7.8-5.3
				c-0.4-0.2-0.7-0.7-0.9-1.2c-0.1-0.5,0-1,0.2-1.5c0.2-0.4,0.7-0.8,1.1-0.9l8.9-3C29.9,42.4,30.4,41.9,30.5,41.2L30.5,41.2z"/>
		</g>
	</g>
	<g>
		<g>
			<path class="st5" d="M87.6,41.2c0.2,0.7,0.7,1.2,1.3,1.4l8.9,3c0.5,0.2,0.9,0.5,1.1,0.9s0.3,1,0.2,1.5c-0.1,0.5-0.4,0.9-0.8,1.2
				l-7.8,5.3c-0.6,0.4-0.9,1-0.9,1.7l-0.1,9.4c0,0.5-0.2,1-0.5,1.4s-0.8,0.6-1.3,0.6s-1-0.1-1.4-0.4l-7.4-5.8
				c-0.5-0.4-1.2-0.5-1.9-0.3l-9,2.8c-0.5,0.2-1,0.1-1.5-0.1s-0.8-0.6-1-1.1s-0.2-1,0-1.5l3.2-8.9c0.2-0.6,0.1-1.3-0.3-1.9l0,0
				l-5.5-7.7c-0.3-0.4-0.4-0.9-0.4-1.4c0.1-0.5,0.3-1,0.7-1.3s0.9-0.5,1.4-0.5l0,0l9.5,0.5c0.7,0,1.3-0.3,1.7-0.8l5.6-7.6
				c0.3-0.4,0.8-0.7,1.3-0.8c0.5-0.1,1,0,1.5,0.3c0.4,0.3,0.8,0.7,0.9,1.2L87.6,41.2L87.6,41.2z"/>
		</g>
	</g>
</g>
</svg>
