<?xml version="1.0" encoding="utf-8"?>
<!-- Generator: Adobe Illustrator 26.1.0, SVG Export Plug-In . SVG Version: 6.00 Build 0)  -->
<svg version="1.1" id="Ebene_1" xmlns="http://www.w3.org/2000/svg" xmlns:xlink="http://www.w3.org/1999/xlink" x="0px" y="0px"
	 width="118px" height="97px" viewBox="0 0 118 97" style="enable-background:new 0 0 118 97;" xml:space="preserve">
<style type="text/css">
	.st0{fill:url(#SVGID_1_);}
	.st1{fill:#19232B;}
	.st2{fill:url(#SVGID_00000088109888951626465960000013163515814329111698_);}
	.st3{fill:url(#SVGID_00000060023769514230157810000014556173077999478716_);}
	.st4{fill:#73202B;}
	.st5{fill:#DB0159;}
</style>
<g>
	
		<radialGradient id="SVGID_1_" cx="58.6119" cy="41.5142" r="34.4994" gradientTransform="matrix(1 0 0 -1 0 98)" gradientUnits="userSpaceOnUse">
		<stop  offset="0" style="stop-color:#FDE635"/>
		<stop  offset="0.4583" style="stop-color:#FDE435"/>
		<stop  offset="0.6234" style="stop-color:#FCDD33"/>
		<stop  offset="0.7411" style="stop-color:#FCD230"/>
		<stop  offset="0.8363" style="stop-color:#FBC12C"/>
		<stop  offset="0.9178" style="stop-color:#F9AB26"/>
		<stop  offset="0.9886" style="stop-color:#F7901F"/>
		<stop  offset="1" style="stop-color:#F78B1E"/>
	</radialGradient>
	<circle class="st0" cx="59" cy="62.5" r="34.5"/>
	<g>
		<path class="st1" d="M36.9,45.1c2.6,0.8,17.4,6.1,16.4,9.3S42,61.8,36.9,61.8c-2.5,0,0.1-3.3,3.3-4.4c3.2-1.1,10.6-2.7,4.4-5
			s-7.6-3.6-8.7-4.3C34.8,47.3,35.7,44.7,36.9,45.1z"/>
		<path class="st1" d="M81.1,45.1c-2.6,0.8-17.4,6.1-16.4,9.3s11.3,7.4,16.4,7.4c2.5,0-0.1-3.3-3.3-4.4c-3.2-1.1-10.6-2.7-4.4-5
			s7.6-3.6,8.7-4.3C83.2,47.3,82.3,44.7,81.1,45.1z"/>
	</g>
	<g>
		
			<linearGradient id="SVGID_00000008829224264361568850000009782218431201490105_" gradientUnits="userSpaceOnUse" x1="58.95" y1="7" x2="58.95" y2="30.3537" gradientTransform="matrix(1 0 0 -1 0 98)">
			<stop  offset="0" style="stop-color:#85231B"/>
			<stop  offset="1" style="stop-color:#33070D"/>
		</linearGradient>
		<path style="fill:url(#SVGID_00000008829224264361568850000009782218431201490105_);" d="M83.4,69.3c-0.2,2.2-0.7,4.3-1.5,6.3
			C78.4,84.6,69.6,91,59.2,91h-0.5C48.4,91,39.6,84.6,36,75.5c-0.8-2-1.3-4.1-1.5-6.3c-0.1-1.1,1-1.9,2-1.5
			c7.9,3.1,20.3,3.4,22.4,3.4c2.1,0,14.6-0.3,22.4-3.4C82.4,67.4,83.5,68.2,83.4,69.3z"/>
		
			<radialGradient id="SVGID_00000091724474595767027230000004804949076570194875_" cx="59" cy="-17699.6113" r="25.8701" gradientTransform="matrix(1 0 0 -0.3225 0 -5634.8013)" gradientUnits="userSpaceOnUse">
			<stop  offset="0" style="stop-color:#FCFDFE"/>
			<stop  offset="0.2546" style="stop-color:#F8FAFC"/>
			<stop  offset="0.5018" style="stop-color:#ECF0F6"/>
			<stop  offset="0.7459" style="stop-color:#D9DFEC"/>
			<stop  offset="0.9869" style="stop-color:#BEC8DE"/>
			<stop  offset="1" style="stop-color:#BCC7DD"/>
		</radialGradient>
		<path style="fill:url(#SVGID_00000091724474595767027230000004804949076570194875_);" d="M83.4,69.3c-0.2,2.2-0.7,4.3-1.5,6.3
			c-6.4,2.7-14.1,4.3-22.5,4.3h-0.8c-8.4,0-16.1-1.6-22.5-4.3c-0.8-2-1.3-4.1-1.5-6.3c-0.1-1.1,1-1.9,2-1.5
			c7.9,3.1,20.3,3.4,22.4,3.4s14.6-0.3,22.4-3.4C82.4,67.4,83.5,68.2,83.4,69.3z"/>
	</g>
	<path class="st4" d="M36.6,68.9c7.9,3.1,20.3,3.4,22.4,3.4c2.1,0,14.6-0.3,22.4-3.4c0.8-0.3,1.7,0.1,1.9,0.9c0-0.2,0.1-0.4,0.1-0.5
		c0.1-1.1-1-1.9-2-1.5c-7.9,3.1-20.3,3.4-22.4,3.4c-2.1,0-14.6-0.3-22.4-3.4c-1-0.4-2.1,0.4-2,1.5c0,0.2,0.1,0.4,0.1,0.5
		C34.9,69.1,35.8,68.6,36.6,68.9z"/>
	<path class="st5" d="M68,89.4c-2.6-1.7-5.7-2.8-9-2.8s-6.4,1.1-8.9,2.8C55.8,91.8,63,91.5,68,89.4z"/>
</g>
</svg>
