<?xml version="1.0" encoding="utf-8"?>
<!-- Generator: Adobe Illustrator 26.1.0, SVG Export Plug-In . SVG Version: 6.00 Build 0)  -->
<svg version="1.1" id="Ebene_1" xmlns="http://www.w3.org/2000/svg" xmlns:xlink="http://www.w3.org/1999/xlink" x="0px" y="0px"
	 width="118px" height="97.1px" viewBox="0 0 118 97.1" style="enable-background:new 0 0 118 97.1;" xml:space="preserve">
<style type="text/css">
	.st0{fill:url(#SVGID_1_);}
	.st1{fill:#FFFFFF;}
	.st2{fill:#5BB140;}
	.st3{fill:#19232B;}
	.st4{fill:url(#SVGID_00000135690900532476649770000002341845526160780947_);}
</style>
<g>
	<g id="Group_371" transform="translate(404.615 314.346)">
		
			<radialGradient id="SVGID_1_" cx="-750.6181" cy="43.4602" r="34.4994" gradientTransform="matrix(1 0 0 -1 404.615 -214.346)" gradientUnits="userSpaceOnUse">
			<stop  offset="0" style="stop-color:#FDE635"/>
			<stop  offset="0.4583" style="stop-color:#FDE435"/>
			<stop  offset="0.6234" style="stop-color:#FCDD33"/>
			<stop  offset="0.7411" style="stop-color:#FCD230"/>
			<stop  offset="0.8363" style="stop-color:#FBC12C"/>
			<stop  offset="0.9178" style="stop-color:#F9AB26"/>
			<stop  offset="0.9886" style="stop-color:#F7901F"/>
			<stop  offset="1" style="stop-color:#F78B1E"/>
		</radialGradient>
		<circle class="st0" cx="-345.6" cy="-251.7" r="34.5"/>
		<g>
			<g id="Group_367" transform="translate(45.165 15.837)">
				<path id="Path_272" class="st1" d="M-373.6-275.8c0,1-1.4,2.8-2.4,2.8s-1.2-1.8-1.2-2.8s0.8-3.1,1.8-3.1
					S-373.6-276.8-373.6-275.8z"/>
				<path id="Path_273" class="st2" d="M-366.5-281.3c-1-0.2-2-0.1-3,0.4c-0.3,0.1-0.6,0.2-1,0.3c0-1.2,0.9-2.1,2-2.2
					c0.4-0.1,0.6-0.4,0.6-0.8c-0.1-0.4-0.4-0.6-0.8-0.6l0,0c-0.8,0.1-1.5,0.4-2.1,1c-0.1-0.3-0.2-0.6-0.4-0.9
					c-0.6-0.9-1.7-1.5-2.8-1.4c-0.5,1-0.4,2.1,0.3,3c0.4,0.7,1.1,1.1,1.9,1.3c0,0.2-0.1,0.4-0.1,0.6c-0.3-0.1-0.7-0.2-1-0.4
					c-0.9-0.5-2-0.6-3.1-0.4c-2.7,0.7-3.9,4.7-3.2,7.7c0.5,2,1.8,5.6,4.9,6.9c0.7,0.2,1.4,0.2,2-0.1c0.6-0.3,1.3-0.3,2,0
					c0.4,0.1,0.8,0.2,1.3,0.2c0.2,0,0.5,0,0.7-0.1c2.9-1.1,4.5-4.3,5-6.9C-362.7-276.9-363.7-280.7-366.5-281.3L-366.5-281.3z
					 M-374.7-277.5c-0.5,0.8-0.6,1.7-0.5,2.6c0.1,0.4-0.2,0.7-0.6,0.8h-0.1c-0.3,0-0.6-0.2-0.7-0.6c-0.2-1.3,0.1-2.6,0.8-3.6
					c0.2-0.3,0.6-0.4,0.9-0.1S-374.5-277.8-374.7-277.5L-374.7-277.5L-374.7-277.5z"/>
			</g>
			<g id="Group_368" transform="translate(8.008 15.837)">
				<path id="Path_274" class="st1" d="M-375.6-275.8c0,1-1.4,2.8-2.4,2.8s-1.2-1.8-1.2-2.8s0.8-3.1,1.8-3.1
					S-375.6-276.8-375.6-275.8z"/>
				<path id="Path_275" class="st2" d="M-368.5-281.3c-1-0.2-2-0.1-3,0.4c-0.3,0.1-0.6,0.2-1,0.3c0-1.2,0.9-2.1,2-2.2
					c0.4-0.1,0.6-0.4,0.6-0.8s-0.4-0.6-0.8-0.6c-0.8,0.1-1.5,0.4-2.1,1c-0.1-0.3-0.2-0.6-0.4-0.9c-0.6-0.9-1.7-1.5-2.8-1.4
					c-0.5,1-0.4,2.1,0.3,3c0.4,0.7,1.1,1.1,1.9,1.3c0,0.2-0.1,0.4-0.1,0.6c-0.3-0.1-0.7-0.2-1-0.4c-0.9-0.5-2-0.6-3.1-0.4
					c-2.7,0.7-3.9,4.7-3.2,7.7c0.5,2,1.8,5.6,4.9,6.9c0.7,0.2,1.4,0.2,2-0.1c0.6-0.3,1.3-0.3,2,0c0.4,0.1,0.8,0.2,1.3,0.2
					c0.2,0,0.5,0,0.7-0.1c2.9-1.1,4.5-4.3,5-6.9C-364.7-276.9-365.7-280.7-368.5-281.3L-368.5-281.3z M-376.7-277.5
					c-0.5,0.8-0.6,1.7-0.5,2.6c0.1,0.4-0.2,0.7-0.6,0.8h-0.1c-0.3,0-0.6-0.2-0.7-0.6c-0.2-1.3,0.1-2.6,0.8-3.6
					c0.2-0.3,0.6-0.4,0.9-0.1S-376.5-277.8-376.7-277.5L-376.7-277.5L-376.7-277.5z"/>
			</g>
		</g>
		<g>
			<path class="st3" d="M-356-280.6c0-1.6-0.8-3.2-3.3-3.2c-2.5,0.1-7.3,1.3-11.7,5.6c-0.7,0.6-0.9,1.7-0.5,2.1s1.2,0.3,2.7-0.9
				c0.4-0.3,7.7-4,10.6-2.8C-357.4-279.6-355.9-279.7-356-280.6z"/>
			<path class="st3" d="M-335.2-280.6c0-1.6,0.8-3.2,3.3-3.2c2.5,0.1,7.3,1.3,11.7,5.6c0.7,0.6,0.9,1.7,0.5,2.1s-1.2,0.3-2.7-0.9
				c-0.4-0.3-7.7-4-10.6-2.8C-333.8-279.6-335.3-279.7-335.2-280.6z"/>
		</g>
		<path class="st3" d="M-306.5-275.5h-78.3c-1.6,0-2.8,1.4-2.8,3c0,0.9,0.6,1.5,1.4,1.5c0.4,0,0.7,0.3,1,0.7
			c0.2,0.4,0.4,0.9,0.5,1.3l2,19.6c0.2,1.7,1.5,3,3.1,3h25c1.4,0,2.7-1.6,3.1-3.1l1.6-6.2c0.4-1.5,1.6-2.5,3-2.5h2.5
			c1.4,0,2.7,1.6,3,3.1l1.6,6.2c0.4,1.5,1.6,2.5,3,2.5h25c1.6,0,3-1.9,3.1-3.6l2-19.6c0.1-0.8,0.7-1.4,1.4-1.4l0,0
			c0.8,0,1.4-0.7,1.4-1.5C-303.7-274.1-304.9-275.5-306.5-275.5z M-353.7-265.2l-1.1,11.5c-0.2,2.6-2.3,4.6-4.7,4.6H-375
			c-2.4,0-4.5-2-4.7-4.6l-1.1-11.5c-0.1-1.4,0.3-2.9,1.2-3.9c0.9-1.1,2.2-1.7,3.5-1.7h17.7c1.3,0,2.6,0.6,3.5,1.7
			C-354-268.1-353.6-266.6-353.7-265.2z M-311.5-253.7c-0.3,2.6-2.3,4.6-4.7,4.6h-15.5c-2.4,0-4.5-2-4.7-4.6l-1.1-11.5
			c-0.1-1.4,0.3-2.9,1.2-3.9c0.9-1.1,2.2-1.7,3.5-1.7h17.7c1.3,0,2.6,0.6,3.5,1.7s1.3,2.5,1.2,3.9L-311.5-253.7z"/>
	</g>
	
		<linearGradient id="SVGID_00000096763883831708184930000018086790847694547382_" gradientUnits="userSpaceOnUse" x1="-1740.1997" y1="518.0924" x2="-1740.1997" y2="525.1526" gradientTransform="matrix(-1 0 0 1 -1681.1997 -443.6216)">
		<stop  offset="0" style="stop-color:#85231B"/>
		<stop  offset="1" style="stop-color:#33070D"/>
	</linearGradient>
	<path style="fill:url(#SVGID_00000096763883831708184930000018086790847694547382_);" d="M59.1,76.9h-0.3c-3.2,0-6.2-0.9-8.5-2.3
		c-0.4-0.3-1.1,0.1-0.9,0.5c1.4,3.8,5.1,6.5,9.5,6.5h0.2c4.4,0,8.1-2.7,9.5-6.5c0.2-0.4-0.5-0.8-0.9-0.5
		C65.3,76,62.4,76.9,59.1,76.9z"/>
</g>
</svg>
