<?xml version="1.0" encoding="UTF-8"?> <svg xmlns="http://www.w3.org/2000/svg" width="60" height="60" viewBox="0 0 60 60"><path fill="#fff" d="M14297 746a29.916 29.916 0 1 1 11.677-2.358A29.8 29.8 0 0 1 14297 746zm6.565-29.865a3.114 3.114 0 0 1 3.224 2.041 11.67 11.67 0 0 1 .483 4.039V733.4h7.123v-12.622c0-3.659-.482-6.057-1.565-7.775-1.334-2.118-3.616-3.148-6.978-3.148a8.176 8.176 0 0 0-4.315 1.178 6.805 6.805 0 0 0-2.43 2.529h-.1v-3.132h-6.839v22.97h7.123v-11.378c-.002-2.91.509-5.886 4.272-5.886zm-22.993-5.706V733.4h7.13v-22.97zm3.56-11.43a4.149 4.149 0 1 0 4.131 4.131 4.136 4.136 0 0 0-4.133-4.13z" transform="translate(-14267 -686.002)"></path></svg> 