<?xml version="1.0" encoding="UTF-8"?> <svg xmlns="http://www.w3.org/2000/svg" width="150" height="81.06"><path fill="#c60046" d="M135.978 8.011c.285-4.78 4.127-8.235 8-8s6.282 4.22 6 9-3.127 8.235-7 8-7.285-4.215-7-9"></path><path fill="#fff" d="M66.3 36.101c-2.14-13.432-14-9.343-13.32-.879-1.613-1.176-2.486-2.065-5.328-1.758a10.077 10.077 0 00-5.328 2.637c-3.676 4.235-3.467 11.321-3.552 16.7a27.561 27.561 0 003.552 14.064c.732 1.2.954 2.118 1.776 2.637a5.8 5.8 0 003.552.879 7.033 7.033 0 005.328-3.516c1.874-2.96 2.434-7.761 2.664-12.306.174-3.433-.028-10.566 0-10.548 3.082 4.6 12.85 5.834 10.656-7.911m55.942-28.127c-7.99-.179-11.05 16.005-11.544 28.127-.456 11.2 2.143 25.4 9.768 25.49 6.9.072 9.34-14.74 9.768-25.49.566-13.993-1.051-27.97-7.992-28.127m-15.1 28.127a77.36 77.36 0 012.664-17.58c-1.669-5.729-4.328-9.052-7.992-8.79-7.972.575-9.433 16.89-8.88 29.006.512 11.2 3.943 25.24 11.544 24.611 2.729-.227 4.984-2.568 6.216-6.153-2.622-5.243-3.841-13.965-3.552-21.1M83.17 41.375a5.371 5.371 0 00-5.328-5.274c-2.808 0-4.44 2.338-4.44 5.274s1.631 5.274 4.44 5.274a5.372 5.372 0 005.328-5.274m8.88 12.306c-2.473 6.957-7.324 11.427-13.32 11.427-7.471 0-13.823-6.9-15.1-16.7 3.733.741 7.708-2.072 6.216-11.427a15.242 15.242 0 00-2.664-7.032 13.4 13.4 0 0111.544-6.153c4.334 0 7.885 2.137 10.656 6.153-.133 2.853-.12 6.135 0 8.79a56.223 56.223 0 002.664 14.943m49.726-32.522c-5.479-.257-9.166 10.327-9.768 20.216-.556 9.144 1.878 20.037 7.1 20.216 4.741.163 8.352-10.563 8.88-19.338.686-11.413-1.461-20.879-6.216-21.1m-111 12.306c4.944 12.1 9.517 45.7-2.664 47.465-18.134 2.623-13.715-35.2-11.544-41.312-4.15 2.31-14.092 8.219-15.983 2.637-2.844-8.4 4.593-21.4 22.2-29.885 15.446-7.443 32.293-5.3 34.631 1.758 4.178 12.6-20.264 19.509-26.639 19.338"></path></svg> 