<?xml version="1.0" encoding="utf-8"?>
<!-- Generator: Adobe Illustrator 24.1.1, SVG Export Plug-In . SVG Version: 6.00 Build 0)  -->
<svg version="1.1" id="Layer_1" xmlns="http://www.w3.org/2000/svg" xmlns:xlink="http://www.w3.org/1999/xlink" x="0px" y="0px"
	 viewBox="0 0 60 45" style="enable-background:new 0 0 60 45;" xml:space="preserve">
<style type="text/css">
	.st0{fill:#E80289;}
</style>
<path class="st0" d="M10.5,45c-2.7,0-5.4-1.1-7.4-3.1c-2-2-3.1-4.7-3.1-7.6c0-0.4,0.2-0.8,0.4-1.1c0.3-0.3,0.7-0.4,1.1-0.4h57
	c0.4,0,0.8,0.2,1.1,0.4c0.3,0.3,0.4,0.7,0.4,1.1c0,2.9-1.2,5.6-3.1,7.6c-2,2-4.6,3.1-7.4,3.1H10.5z M5.3,27.9c-0.7,0-1.4-0.1-2-0.4
	c-0.6-0.3-1.2-0.7-1.7-1.1c-0.5-0.5-0.9-1.1-1.1-1.8C0.1,24,0,23.3,0,22.6c0-0.7,0.1-1.4,0.4-2.1c0.3-0.7,0.7-1.3,1.1-1.8
	c0.5-0.5,1.1-0.9,1.7-1.1c0.6-0.3,1.3-0.4,2-0.4h49.5c0.7,0,1.4,0.1,2,0.4c0.6,0.3,1.2,0.7,1.7,1.1c0.5,0.5,0.9,1.1,1.1,1.8
	c0.3,0.7,0.4,1.4,0.4,2.1c0,0.7-0.1,1.4-0.4,2.1c-0.3,0.7-0.7,1.3-1.1,1.8c-0.5,0.5-1.1,0.9-1.7,1.1c-0.6,0.3-1.3,0.4-2,0.4H5.3z
	 M1.5,12.2c-0.4,0-0.8-0.2-1.1-0.4C0.2,11.5,0,11.1,0,10.7c0-2.9,1.2-5.6,3.1-7.6c2-2,4.6-3.1,7.4-3.1h39c2.7,0,5.4,1.1,7.4,3.1
	c2,2,3.1,4.7,3.1,7.6c0,0.4-0.2,0.8-0.4,1.1c-0.3,0.3-0.7,0.4-1.1,0.4H1.5z"/>
</svg>
