<svg xmlns="http://www.w3.org/2000/svg" width="37.08" height="47.448" viewBox="0 0 37.08 47.448">
    <path fill="#fff" d="M-1.368-24.48c0-1.224-.216-2.52-.216-3.744 0-1.728-1.656-2.088-3.1-2.088-2.016 0-4.032.792-6.048.792-1.3 0-1.656-1.368-1.656-2.376 0-4.1 1.3-8.136 1.3-12.24 0-3.312-3.312-3.888-5.976-3.888a71.565 71.565 0 0 0-7.848.36c-1.8 0-1.944 2.16-1.944 3.456 0 3.168 1.08 6.264 1.08 9.432 0 2.448-2.376 2.952-4.32 2.952-1.584 0-3.24-.144-4.824-.144-3.024 0-3.528 2.808-3.528 5.256a29.581 29.581 0 0 0 .72 6.12 1.887 1.887 0 0 0 2.088 1.728c2.88 0 5.688-1.584 8.64-1.584 2.16 0 2.736 1.656 2.736 3.528 0 4.32-1.8 8.424-1.8 12.672 0 2.664 1.512 3.672 4.032 3.672a24.191 24.191 0 0 0 8.28-2.088c1.944-.864 2.088-3.888 2.088-5.688 0-3.312-1.008-6.48-1.008-9.72 0-2.088 2.088-2.52 3.744-2.52 1.44 0 2.808.072 4.248.072 2.592 0 3.312-1.656 3.312-3.96z" transform="translate(38.448 48.024)"/>
</svg>
