<?xml version="1.0" encoding="UTF-8"?> <svg xmlns="http://www.w3.org/2000/svg" width="60.003" height="60.004" viewBox="0 0 60.003 60.004"><path fill="#fff" d="M8095.3 19457a29.917 29.917 0 1 1 11.678-2.359 29.813 29.813 0 0 1-11.678 2.359zm0-44.432c-.128 0-12.862.01-16.031.865a5.14 5.14 0 0 0-3.628 3.652c-.85 3.186-.859 9.875-.859 9.941s.01 6.756.859 9.941a5 5 0 0 0 1.327 2.287 5.215 5.215 0 0 0 2.3 1.309c3.169.854 15.9.863 16.031.863s12.862-.01 16.036-.863a5.215 5.215 0 0 0 2.3-1.309 5.026 5.026 0 0 0 1.331-2.287c.845-3.186.854-9.875.854-9.941s-.01-6.756-.854-9.941a5.156 5.156 0 0 0-3.628-3.652c-3.174-.853-15.908-.863-16.038-.863zm-4.194 20.559v-12.2l10.723 6.1-10.722 6.1z" transform="translate(-8065.3 -19396.998)"></path></svg> 