<svg id="Layer_1" data-name="Layer 1" xmlns="http://www.w3.org/2000/svg" viewBox="0 0 108 91"><defs><style>.cls-1{fill:#ff3334;}.cls-2{fill:none;stroke:#ff3334;stroke-linecap:round;stroke-miterlimit:10;stroke-width:2.4px;}.cls-3{fill:#fff;}</style></defs><path class="cls-1" d="M74.52,47.43A3.44,3.44,0,1,1,71.09,44,3.38,3.38,0,0,1,74.52,47.43Z"/><path class="cls-2" d="M63,25.73A62.42,62.42,0,0,0,48.26,54.55S44.42,77.6,27.77,75c0,0-21.78,0-15.38-24.34,0,0,9-32,32-34.58,0,0,26.89-5.12,34.58,14.09a63.62,63.62,0,0,1,3.5,11A7.82,7.82,0,0,0,86,46.31l7.87,5a6.29,6.29,0,0,1,2.86,6.1C96,63.21,92.89,73.24,80.28,75c-17.93,2.56-24.34-6.4-24.34-6.4"/><path class="cls-1" d="M96.5,82.7a2.65,2.65,0,0,1-1.7-.61l-85-69a2.7,2.7,0,0,1-.4-3.8,2.71,2.71,0,0,1,3.8-.4l85,69a2.72,2.72,0,0,1,1,1.82,2.68,2.68,0,0,1-.6,2A2.65,2.65,0,0,1,96.5,82.7Z"/><path class="cls-3" d="M11.5,9.8a1.22,1.22,0,0,1,.76.27l85,69a1.2,1.2,0,0,1-.76,2.13,1.22,1.22,0,0,1-.76-.27l-85-69A1.2,1.2,0,0,1,11.5,9.8m0-3h0a4.2,4.2,0,0,0-2.65,7.46l85,69a4.2,4.2,0,1,0,5.3-6.52l-85-69A4.21,4.21,0,0,0,11.5,6.8Z"/></svg>