<svg id="Layer_1" data-name="Layer 1" xmlns="http://www.w3.org/2000/svg" viewBox="0 0 100 88"><defs><style>.cls-1{fill:#ff3334;}.cls-2{fill:none;stroke:#ff3334;stroke-miterlimit:10;stroke-width:2.4px;}.cls-3{fill:#fff;}</style></defs><circle class="cls-1" cx="73.37" cy="28.78" r="0.91"/><circle class="cls-1" cx="76.67" cy="25.93" r="1.17"/><circle class="cls-1" cx="79.89" cy="28.78" r="0.91"/><path class="cls-2" d="M25.45,32.06H70a4.3,4.3,0,0,1,4.3,4.3v29A10.51,10.51,0,0,1,63.81,75.84H31.66A10.51,10.51,0,0,1,21.15,65.33v-29A4.3,4.3,0,0,1,25.45,32.06Z"/><path class="cls-2" d="M23,21.26h48.6a.89.89,0,0,1,.89.89v1.2a2.58,2.58,0,0,1-2.58,2.58H24.67a2.58,2.58,0,0,1-2.58-2.58v-1.2A.89.89,0,0,1,23,21.26Z" transform="translate(96.55 42.65) rotate(174.63)"/><path class="cls-2" d="M43.62,16.15H50a2.4,2.4,0,0,1,2.4,2.4v2.73a0,0,0,0,1,0,0H41.22a0,0,0,0,1,0,0V18.55A2.4,2.4,0,0,1,43.62,16.15Z" transform="translate(-1.55 4.47) rotate(-5.37)"/><path class="cls-1" d="M28.61,32.93h3.73a0,0,0,0,1,0,0V44.12A1.87,1.87,0,0,1,30.48,46h0a1.87,1.87,0,0,1-1.87-1.87V32.93A0,0,0,0,1,28.61,32.93Z"/><path class="cls-1" d="M33.28,32H37a0,0,0,0,1,0,0v5.6a1.87,1.87,0,0,1-1.87,1.87h0a1.87,1.87,0,0,1-1.87-1.87V32a0,0,0,0,1,0,0Z"/><path class="cls-1" d="M89,77.69a2.69,2.69,0,0,1-1.68-.59l-78-62a2.7,2.7,0,1,1,3.36-4.23l78,62A2.7,2.7,0,0,1,89,77.69Z"/><path class="cls-3" d="M11,11.81a1.24,1.24,0,0,1,.75.26l78,62a1.19,1.19,0,0,1,.19,1.68,1.21,1.21,0,0,1-.94.46,1.24,1.24,0,0,1-.75-.26l-78-62a1.19,1.19,0,0,1-.19-1.68,1.21,1.21,0,0,1,.94-.46m0-3h0a4.2,4.2,0,0,0-4.17,4.68A4.11,4.11,0,0,0,8.39,16.3l78,62a4.17,4.17,0,0,0,5.9-.68,4.19,4.19,0,0,0-.68-5.89l-78-62A4.21,4.21,0,0,0,11,8.81Z"/></svg>