<svg id="Layer_1" data-name="Layer 1" xmlns="http://www.w3.org/2000/svg" viewBox="0 0 62 78"><defs><style>.cls-1,.cls-2{fill:none;stroke:#ff3334;stroke-miterlimit:10;stroke-width:2.4px;}.cls-2{stroke-linecap:round;}</style></defs><line class="cls-1" x1="17.62" y1="62.76" x2="41.3" y2="62.76"/><line class="cls-2" x1="29.46" y1="61.73" x2="29.46" y2="53"/><path class="cls-1" d="M48,17.36l.14,5.55,8,2.42A23.16,23.16,0,0,0,46,4.25L41.32,11.6Z"/><path class="cls-1" d="M51.2,28.77l-8.36.51-2.06-5.15L32.53,21l1.82-8.5A23.12,23.12,0,0,0,14.51,53.09a8.51,8.51,0,0,1,3.11,6.67v6.72a7.27,7.27,0,0,0,7.27,7.27H34a7.27,7.27,0,0,0,7.27-7.27V58.84a8.52,8.52,0,0,1,2.84-6.43A23,23,0,0,0,52.06,35,23.33,23.33,0,0,0,51.2,28.77Z"/></svg>