<svg id="Layer_1" data-name="Layer 1" xmlns="http://www.w3.org/2000/svg" viewBox="0 0 62 65"><defs><style>.cls-1{fill:#ff3334;}.cls-2{fill:none;stroke:#ff3334;stroke-linecap:round;stroke-miterlimit:10;stroke-width:2.4px;}</style></defs><path class="cls-1" d="M37,.65H26.29a2.16,2.16,0,0,0-2.16,2.16V6.65h15V2.81A2.17,2.17,0,0,0,37,.65Z"/><path class="cls-1" d="M31.63,7.25A27.6,27.6,0,1,1,4,34.85,27.64,27.64,0,0,1,31.63,7.25m0-2.4a30,30,0,1,0,30,30,30,30,0,0,0-30-30Z"/><path class="cls-2" d="M31.63,16.25V29.84c0,2.43,1.17,4.41,4.09,4.41h6.41"/><circle class="cls-1" cx="31.63" cy="10.25" r="1.25"/><circle class="cls-1" cx="54.13" cy="34.52" r="1.25"/></svg>